<?xml version="1.0" encoding="utf-8"?>
<!-- Generator: Adobe Illustrator 19.0.0, SVG Export Plug-In . SVG Version: 6.00 Build 0)  -->
<svg version="1.1" id="图层_1" xmlns="http://www.w3.org/2000/svg" xmlns:xlink="http://www.w3.org/1999/xlink" x="0px" y="0px"
	 viewBox="0 0 200 200" style="enable-background:new 0 0 200 200;" xml:space="preserve">
<style type="text/css">
	.st0{fill-rule:evenodd;clip-rule:evenodd;fill:url(#XMLID_3_);}
</style>
<linearGradient id="XMLID_3_" gradientUnits="userSpaceOnUse" x1="94.5013" y1="14.4977" x2="106.4402" y2="185.2328">
	<stop  offset="0" style="stop-color:#219CCC"/>
	<stop  offset="0.4" style="stop-color:#009944"/>
	<stop  offset="0.76" style="stop-color:#ABCD03"/>
	<stop  offset="1" style="stop-color:#D9E480"/>
</linearGradient>
<path id="XMLID_2_" class="st0" d="M91.3,195.9c0.2-3.8-12.4-5.5-13.7-1.8C75.9,198.8,91,202.1,91.3,195.9L91.3,195.9z M5.3,128.2
	c-8.6-29.8-5.2-60.6,17.5-89.4C45.6,10.1,85.2-5.2,121.5,3.4c5.3,0.4,3.2,9.1-1.3,7.5C102.7,8.3,91.7,8,78.4,11.1
	c-20.6,5.2-43,17-56.7,39c24-24.3,51.9-32.9,83.2-32.2c6.2-0.1,6.2,8.4,0.5,8.4c-39.1-1.4-73.9,12.1-94,47.1
	c15.8-19.6,40.8-33,67-36.7c23.1-3.3,43.8-1,66.4,4.7c9.5,2.5,3.6,10.5-1.3,8C99.4,37.7,27.2,42.6,8.7,92.4
	C17,81.3,25.8,72.6,36.1,66.3c26-15.9,58.1-17,92-9.3c11.5,2.6,6.9,11.1,0.1,9C75.7,53.9,8.9,62.2,5.3,128.2L5.3,128.2z M193.4,66.5
	c12.2,31.8,7.6,67.2-15,95.8c-19.9,25.2-49.6,38.1-79.4,37.7c-6.3-1.2-4.2-7.5-1.2-7.6c35.8-0.4,73.9-18,88.3-56.2
	c-28.1,39.5-74.7,55.1-126.2,44.4c-5-1.1-4.7-6.9-0.7-8.2c22.2,4,49.9,3.9,73.7-4.2c32-10.8,55.8-39.5,58.5-50.6
	c-10.8,12.4-21.9,23-34.2,30.3c-35.1,20.8-76.3,21-118.5,10.2c-6.5-1.7-2.5-9.3,1.7-7.7c50.6,13.9,119.9,7,150.1-41.2
	c-31.1,32.5-65.6,39.4-102.8,37.8c-9.5-0.3-7.6-9.2-2.2-9.5c33.8,1.9,78.3-3.1,106.6-38.7c-25,21.4-51.8,27.7-80.2,28.1
	c-7,0.5-10.2-7.4-2.2-8.8c30.4,0,64.9-6.8,82.1-28.3c-28.4,21.3-52,16.6-81.1,16.2c-15.9-0.2-30.2-0.2-46.7,1.2
	c-6.4,0.4-7.4-7.8-0.9-8.8c18.1-2.8,36.1-2.3,53.6-1.4c16.6,0.8,32.6,2.1,48.4-1.1c9.2-1.9,21.2-8,26-13.9c-6.7,5.1-19,7-31.3,7
	c-11.7,0-23.3-1.7-30.5-2.4c-16.2-1.5-28.4-2.6-43.2-2.7c-5.2,0.3-7.1-7.2-2.3-8.4c14-3.3,29.8,1,46.3,2.6c6.6,0.6,22,3.7,35.7,4
	C181.2,82.5,194.4,78.6,193.4,66.5L193.4,66.5z M143.6,14c1.7-3.6-9.3-8.8-11.4-4.9C129.7,13.7,141.6,18.3,143.6,14L143.6,14z
	 M173.9,37c1.1-3.5-8.3-7.3-9.9-4.2C162.4,35.9,172.5,41.5,173.9,37L173.9,37z M155.7,29.5c0.6-3.6-13-7.8-14.4-3.5
	C139.8,30.3,154.7,35.3,155.7,29.5L155.7,29.5z M133,24.2c0.6-4.1-14.2-6.4-16-2.2C114.9,27.1,132,30.3,133,24.2L133,24.2z
	 M188.3,59.6c0.4-2.9-8.5-7.8-10.2-3.9C176.3,60,187.7,64,188.3,59.6L188.3,59.6z M171.9,52.4c0.6-4.1-14.2-9-16-4.7
	C153.9,52.8,171,58.6,171.9,52.4L171.9,52.4z M155.5,67.7c-0.2-5.1-14.7-8.2-16.2-3.8C137.5,69.1,155.8,74.3,155.5,67.7L155.5,67.7z
	 M55.1,82.2c-1.6-4.7-11.2-0.5-9.9,3C46.8,89.2,56.8,86.9,55.1,82.2L55.1,82.2z M76.3,78.3c-1.5-4.6-15.6-2.9-16,2.2
	C59.8,86.6,78.3,84.3,76.3,78.3L76.3,78.3z M36.4,108.7c-1.9-2.7-9.9,0.8-9,3.9C28.4,116,39.1,112.5,36.4,108.7L36.4,108.7z
	 M53.7,103.8c-1.9-3.8-13.8-1.2-13.6,2.6C40.3,111.4,56.1,108.7,53.7,103.8L53.7,103.8z M79.5,121.3c0.2-4.3-9.8-4.4-10.2-1.4
	C68.8,123.7,79.3,125.4,79.5,121.3L79.5,121.3z M100.6,122.8c-0.6-4.8-15.1-6.3-16.3-1.3C82.7,128,101.3,129.1,100.6,122.8
	L100.6,122.8z M33.3,133.2c0.4-3.2-9.7-5.2-10.9-2.5C20.8,134.3,32.8,137.4,33.3,133.2L33.3,133.2z M53.1,137.9
	c-0.1-4.3-12.7-6.2-14.2-2.7C37.1,139.9,53.2,143.4,53.1,137.9L53.1,137.9z M75.2,140.7c-0.4-4.2-15.6-6.5-17.4-2.1
	C55.4,144.3,75.7,146.7,75.2,140.7L75.2,140.7z M23.8,147.5c0.4-3.5-9.8-7.5-11.7-4.6C9.7,146.8,23.1,153.3,23.8,147.5L23.8,147.5z
	 M45.8,172.7c0.5-3.8-10.8-8.3-12.9-5C30.2,171.9,45,179.1,45.8,172.7L45.8,172.7z M73.2,194.7c2.2-3.1-5.9-7-8.2-4.4
	C62.1,193.5,71.1,197.6,73.2,194.7z"/>
</svg>
